<mxfile host="app.diagrams.net" modified="2024-05-30T13:13:13.151Z" agent="Mozilla/5.0 (Windows NT 10.0; Win64; x64) AppleWebKit/537.36 (KHTML, like Gecko) Chrome/125.0.0.0 Safari/537.36" etag="FVcf3F2qGEOg7tiSRtx4" version="24.4.6" type="device">
  <diagram name="Page-1" id="kT7Cum1fLLLiS74UeVOW">
    <mxGraphModel dx="1430" dy="763" grid="1" gridSize="10" guides="1" tooltips="1" connect="1" arrows="1" fold="1" page="1" pageScale="1" pageWidth="827" pageHeight="1169" math="0" shadow="0">
      <root>
        <mxCell id="0" />
        <mxCell id="1" parent="0" />
        <mxCell id="svKp2PfW3cR6oauoN-tS-10" value="" style="group" vertex="1" connectable="0" parent="1">
          <mxGeometry x="40" y="490" width="160" height="190" as="geometry" />
        </mxCell>
        <mxCell id="svKp2PfW3cR6oauoN-tS-1" value="E&#39; -&amp;gt; .E&lt;span style=&quot;font-size:11.0pt;line-height:107%;font-family:&amp;quot;Aptos&amp;quot;,sans-serif;&lt;br/&gt;mso-ascii-theme-font:minor-latin;mso-fareast-font-family:Aptos;mso-fareast-theme-font:&lt;br/&gt;minor-latin;mso-hansi-theme-font:minor-latin;mso-bidi-font-family:&amp;quot;Times New Roman&amp;quot;;&lt;br/&gt;mso-bidi-theme-font:minor-bidi;mso-font-kerning:0pt;mso-ligatures:none;&lt;br/&gt;mso-ansi-language:ES;mso-fareast-language:EN-US;mso-bidi-language:AR-SA&quot;&gt;&lt;/span&gt;" style="swimlane;fontStyle=0;childLayout=stackLayout;horizontal=1;startSize=40;horizontalStack=0;resizeParent=1;resizeParentMax=0;resizeLast=0;collapsible=1;marginBottom=0;whiteSpace=wrap;html=1;" vertex="1" parent="svKp2PfW3cR6oauoN-tS-10">
          <mxGeometry y="30" width="160" height="160" as="geometry" />
        </mxCell>
        <mxCell id="svKp2PfW3cR6oauoN-tS-2" value="E -&amp;gt; .SB" style="text;strokeColor=none;fillColor=none;align=left;verticalAlign=middle;spacingLeft=4;spacingRight=4;overflow=hidden;points=[[0,0.5],[1,0.5]];portConstraint=eastwest;rotatable=0;whiteSpace=wrap;html=1;" vertex="1" parent="svKp2PfW3cR6oauoN-tS-1">
          <mxGeometry y="40" width="160" height="40" as="geometry" />
        </mxCell>
        <mxCell id="svKp2PfW3cR6oauoN-tS-3" value="S -&amp;gt; a.R" style="text;strokeColor=none;fillColor=none;align=left;verticalAlign=middle;spacingLeft=4;spacingRight=4;overflow=hidden;points=[[0,0.5],[1,0.5]];portConstraint=eastwest;rotatable=0;whiteSpace=wrap;html=1;" vertex="1" parent="svKp2PfW3cR6oauoN-tS-1">
          <mxGeometry y="80" width="160" height="40" as="geometry" />
        </mxCell>
        <mxCell id="svKp2PfW3cR6oauoN-tS-4" value="S -&amp;gt; b.R" style="text;strokeColor=none;fillColor=none;align=left;verticalAlign=middle;spacingLeft=4;spacingRight=4;overflow=hidden;points=[[0,0.5],[1,0.5]];portConstraint=eastwest;rotatable=0;whiteSpace=wrap;html=1;" vertex="1" parent="svKp2PfW3cR6oauoN-tS-1">
          <mxGeometry y="120" width="160" height="40" as="geometry" />
        </mxCell>
        <mxCell id="svKp2PfW3cR6oauoN-tS-9" value="0" style="text;strokeColor=none;fillColor=none;align=center;verticalAlign=middle;spacingLeft=4;spacingRight=4;overflow=hidden;points=[[0,0.5],[1,0.5]];portConstraint=eastwest;rotatable=0;whiteSpace=wrap;html=1;" vertex="1" parent="svKp2PfW3cR6oauoN-tS-10">
          <mxGeometry width="160" height="30" as="geometry" />
        </mxCell>
        <mxCell id="svKp2PfW3cR6oauoN-tS-19" value="" style="group" vertex="1" connectable="0" parent="1">
          <mxGeometry x="280" y="250" width="140" height="70" as="geometry" />
        </mxCell>
        <mxCell id="svKp2PfW3cR6oauoN-tS-22" value="" style="group" vertex="1" connectable="0" parent="svKp2PfW3cR6oauoN-tS-19">
          <mxGeometry y="-10" width="140" height="80" as="geometry" />
        </mxCell>
        <mxCell id="svKp2PfW3cR6oauoN-tS-17" value="E&#39; -&amp;gt; E." style="rounded=0;whiteSpace=wrap;html=1;" vertex="1" parent="svKp2PfW3cR6oauoN-tS-22">
          <mxGeometry y="40" width="140" height="40" as="geometry" />
        </mxCell>
        <mxCell id="svKp2PfW3cR6oauoN-tS-18" value="1" style="text;strokeColor=none;fillColor=none;align=center;verticalAlign=middle;spacingLeft=4;spacingRight=4;overflow=hidden;points=[[0,0.5],[1,0.5]];portConstraint=eastwest;rotatable=0;whiteSpace=wrap;html=1;" vertex="1" parent="svKp2PfW3cR6oauoN-tS-22">
          <mxGeometry width="140" height="40" as="geometry" />
        </mxCell>
        <mxCell id="svKp2PfW3cR6oauoN-tS-20" value="" style="endArrow=none;html=1;rounded=0;entryX=1.001;entryY=0.331;entryDx=0;entryDy=0;entryPerimeter=0;" edge="1" parent="svKp2PfW3cR6oauoN-tS-22" target="svKp2PfW3cR6oauoN-tS-17">
          <mxGeometry width="50" height="50" relative="1" as="geometry">
            <mxPoint x="120" y="80" as="sourcePoint" />
            <mxPoint x="150" y="40" as="targetPoint" />
          </mxGeometry>
        </mxCell>
        <mxCell id="svKp2PfW3cR6oauoN-tS-21" value="" style="endArrow=none;html=1;rounded=0;" edge="1" parent="svKp2PfW3cR6oauoN-tS-22">
          <mxGeometry width="50" height="50" relative="1" as="geometry">
            <mxPoint x="130" y="80" as="sourcePoint" />
            <mxPoint x="140" y="66.66666666666667" as="targetPoint" />
          </mxGeometry>
        </mxCell>
        <mxCell id="svKp2PfW3cR6oauoN-tS-23" value="" style="group" vertex="1" connectable="0" parent="1">
          <mxGeometry x="520" y="730" width="140" height="70" as="geometry" />
        </mxCell>
        <mxCell id="svKp2PfW3cR6oauoN-tS-24" value="" style="group" vertex="1" connectable="0" parent="svKp2PfW3cR6oauoN-tS-23">
          <mxGeometry width="140" height="70" as="geometry" />
        </mxCell>
        <mxCell id="svKp2PfW3cR6oauoN-tS-25" value="S -&amp;gt; bR." style="rounded=0;whiteSpace=wrap;html=1;" vertex="1" parent="svKp2PfW3cR6oauoN-tS-24">
          <mxGeometry y="30" width="140" height="40" as="geometry" />
        </mxCell>
        <mxCell id="svKp2PfW3cR6oauoN-tS-26" value="8" style="text;strokeColor=none;fillColor=none;align=center;verticalAlign=middle;spacingLeft=4;spacingRight=4;overflow=hidden;points=[[0,0.5],[1,0.5]];portConstraint=eastwest;rotatable=0;whiteSpace=wrap;html=1;" vertex="1" parent="svKp2PfW3cR6oauoN-tS-24">
          <mxGeometry width="140" height="30" as="geometry" />
        </mxCell>
        <mxCell id="svKp2PfW3cR6oauoN-tS-27" value="" style="endArrow=none;html=1;rounded=0;entryX=1.001;entryY=0.331;entryDx=0;entryDy=0;entryPerimeter=0;" edge="1" parent="svKp2PfW3cR6oauoN-tS-24" target="svKp2PfW3cR6oauoN-tS-25">
          <mxGeometry width="50" height="50" relative="1" as="geometry">
            <mxPoint x="120" y="60" as="sourcePoint" />
            <mxPoint x="150" y="30" as="targetPoint" />
          </mxGeometry>
        </mxCell>
        <mxCell id="svKp2PfW3cR6oauoN-tS-28" value="" style="endArrow=none;html=1;rounded=0;" edge="1" parent="svKp2PfW3cR6oauoN-tS-24">
          <mxGeometry width="50" height="50" relative="1" as="geometry">
            <mxPoint x="130" y="60" as="sourcePoint" />
            <mxPoint x="140" y="50" as="targetPoint" />
          </mxGeometry>
        </mxCell>
        <mxCell id="svKp2PfW3cR6oauoN-tS-29" value="" style="group" vertex="1" connectable="0" parent="1">
          <mxGeometry x="520" y="570" width="140" height="70" as="geometry" />
        </mxCell>
        <mxCell id="svKp2PfW3cR6oauoN-tS-30" value="" style="group" vertex="1" connectable="0" parent="svKp2PfW3cR6oauoN-tS-29">
          <mxGeometry width="140" height="70" as="geometry" />
        </mxCell>
        <mxCell id="svKp2PfW3cR6oauoN-tS-31" value="S -&amp;gt; aR." style="rounded=0;whiteSpace=wrap;html=1;" vertex="1" parent="svKp2PfW3cR6oauoN-tS-30">
          <mxGeometry y="30" width="140" height="40" as="geometry" />
        </mxCell>
        <mxCell id="svKp2PfW3cR6oauoN-tS-32" value="7" style="text;strokeColor=none;fillColor=none;align=center;verticalAlign=middle;spacingLeft=4;spacingRight=4;overflow=hidden;points=[[0,0.5],[1,0.5]];portConstraint=eastwest;rotatable=0;whiteSpace=wrap;html=1;" vertex="1" parent="svKp2PfW3cR6oauoN-tS-30">
          <mxGeometry width="140" height="30" as="geometry" />
        </mxCell>
        <mxCell id="svKp2PfW3cR6oauoN-tS-33" value="" style="endArrow=none;html=1;rounded=0;entryX=1.001;entryY=0.331;entryDx=0;entryDy=0;entryPerimeter=0;" edge="1" parent="svKp2PfW3cR6oauoN-tS-30" target="svKp2PfW3cR6oauoN-tS-31">
          <mxGeometry width="50" height="50" relative="1" as="geometry">
            <mxPoint x="120" y="60" as="sourcePoint" />
            <mxPoint x="150" y="30" as="targetPoint" />
          </mxGeometry>
        </mxCell>
        <mxCell id="svKp2PfW3cR6oauoN-tS-34" value="" style="endArrow=none;html=1;rounded=0;" edge="1" parent="svKp2PfW3cR6oauoN-tS-30">
          <mxGeometry width="50" height="50" relative="1" as="geometry">
            <mxPoint x="130" y="60" as="sourcePoint" />
            <mxPoint x="140" y="50" as="targetPoint" />
          </mxGeometry>
        </mxCell>
        <mxCell id="svKp2PfW3cR6oauoN-tS-35" value="" style="group" vertex="1" connectable="0" parent="1">
          <mxGeometry x="810" y="370" width="140" height="70" as="geometry" />
        </mxCell>
        <mxCell id="svKp2PfW3cR6oauoN-tS-36" value="" style="group" vertex="1" connectable="0" parent="svKp2PfW3cR6oauoN-tS-35">
          <mxGeometry x="-10" width="140" height="70" as="geometry" />
        </mxCell>
        <mxCell id="svKp2PfW3cR6oauoN-tS-37" value="B -&amp;gt; dE." style="rounded=0;whiteSpace=wrap;html=1;" vertex="1" parent="svKp2PfW3cR6oauoN-tS-36">
          <mxGeometry y="30" width="140" height="40" as="geometry" />
        </mxCell>
        <mxCell id="svKp2PfW3cR6oauoN-tS-38" value="9" style="text;strokeColor=none;fillColor=none;align=center;verticalAlign=middle;spacingLeft=4;spacingRight=4;overflow=hidden;points=[[0,0.5],[1,0.5]];portConstraint=eastwest;rotatable=0;whiteSpace=wrap;html=1;" vertex="1" parent="svKp2PfW3cR6oauoN-tS-36">
          <mxGeometry width="140" height="30" as="geometry" />
        </mxCell>
        <mxCell id="svKp2PfW3cR6oauoN-tS-39" value="" style="endArrow=none;html=1;rounded=0;entryX=1.001;entryY=0.331;entryDx=0;entryDy=0;entryPerimeter=0;" edge="1" parent="svKp2PfW3cR6oauoN-tS-36" target="svKp2PfW3cR6oauoN-tS-37">
          <mxGeometry width="50" height="50" relative="1" as="geometry">
            <mxPoint x="120" y="60" as="sourcePoint" />
            <mxPoint x="150" y="30" as="targetPoint" />
          </mxGeometry>
        </mxCell>
        <mxCell id="svKp2PfW3cR6oauoN-tS-40" value="" style="endArrow=none;html=1;rounded=0;" edge="1" parent="svKp2PfW3cR6oauoN-tS-36">
          <mxGeometry width="50" height="50" relative="1" as="geometry">
            <mxPoint x="130" y="60" as="sourcePoint" />
            <mxPoint x="140" y="50" as="targetPoint" />
          </mxGeometry>
        </mxCell>
        <mxCell id="svKp2PfW3cR6oauoN-tS-41" value="" style="group" vertex="1" connectable="0" parent="1">
          <mxGeometry x="560" y="250" width="140" height="70" as="geometry" />
        </mxCell>
        <mxCell id="svKp2PfW3cR6oauoN-tS-42" value="" style="group" vertex="1" connectable="0" parent="svKp2PfW3cR6oauoN-tS-41">
          <mxGeometry width="140" height="70" as="geometry" />
        </mxCell>
        <mxCell id="svKp2PfW3cR6oauoN-tS-43" value="S -&amp;gt; SB." style="rounded=0;whiteSpace=wrap;html=1;" vertex="1" parent="svKp2PfW3cR6oauoN-tS-42">
          <mxGeometry y="30" width="140" height="40" as="geometry" />
        </mxCell>
        <mxCell id="svKp2PfW3cR6oauoN-tS-44" value="5" style="text;strokeColor=none;fillColor=none;align=center;verticalAlign=middle;spacingLeft=4;spacingRight=4;overflow=hidden;points=[[0,0.5],[1,0.5]];portConstraint=eastwest;rotatable=0;whiteSpace=wrap;html=1;" vertex="1" parent="svKp2PfW3cR6oauoN-tS-42">
          <mxGeometry width="140" height="30" as="geometry" />
        </mxCell>
        <mxCell id="svKp2PfW3cR6oauoN-tS-45" value="" style="endArrow=none;html=1;rounded=0;entryX=1.001;entryY=0.331;entryDx=0;entryDy=0;entryPerimeter=0;" edge="1" parent="svKp2PfW3cR6oauoN-tS-42" target="svKp2PfW3cR6oauoN-tS-43">
          <mxGeometry width="50" height="50" relative="1" as="geometry">
            <mxPoint x="120" y="60" as="sourcePoint" />
            <mxPoint x="150" y="30" as="targetPoint" />
          </mxGeometry>
        </mxCell>
        <mxCell id="svKp2PfW3cR6oauoN-tS-46" value="" style="endArrow=none;html=1;rounded=0;" edge="1" parent="svKp2PfW3cR6oauoN-tS-42">
          <mxGeometry width="50" height="50" relative="1" as="geometry">
            <mxPoint x="130" y="60" as="sourcePoint" />
            <mxPoint x="140" y="50" as="targetPoint" />
          </mxGeometry>
        </mxCell>
        <mxCell id="svKp2PfW3cR6oauoN-tS-50" value="" style="endArrow=classic;html=1;rounded=0;entryX=0;entryY=0.5;entryDx=0;entryDy=0;align=center;" edge="1" parent="1" target="svKp2PfW3cR6oauoN-tS-17">
          <mxGeometry width="50" height="50" relative="1" as="geometry">
            <mxPoint x="200" y="540" as="sourcePoint" />
            <mxPoint x="300" y="490" as="targetPoint" />
            <Array as="points">
              <mxPoint x="240" y="540" />
              <mxPoint x="240" y="300" />
            </Array>
          </mxGeometry>
        </mxCell>
        <mxCell id="svKp2PfW3cR6oauoN-tS-51" value="E" style="edgeLabel;html=1;align=center;verticalAlign=middle;resizable=0;points=[];" vertex="1" connectable="0" parent="svKp2PfW3cR6oauoN-tS-50">
          <mxGeometry x="0.1093" relative="1" as="geometry">
            <mxPoint as="offset" />
          </mxGeometry>
        </mxCell>
        <mxCell id="svKp2PfW3cR6oauoN-tS-52" value="" style="group" vertex="1" connectable="0" parent="1">
          <mxGeometry x="320" y="330" width="160" height="190" as="geometry" />
        </mxCell>
        <mxCell id="svKp2PfW3cR6oauoN-tS-53" value="E -&amp;gt; S.B" style="swimlane;fontStyle=0;childLayout=stackLayout;horizontal=1;startSize=40;horizontalStack=0;resizeParent=1;resizeParentMax=0;resizeLast=0;collapsible=1;marginBottom=0;whiteSpace=wrap;html=1;" vertex="1" parent="svKp2PfW3cR6oauoN-tS-52">
          <mxGeometry y="30" width="160" height="120" as="geometry" />
        </mxCell>
        <mxCell id="svKp2PfW3cR6oauoN-tS-54" value="B -&amp;gt; .dE" style="text;strokeColor=none;fillColor=none;align=left;verticalAlign=middle;spacingLeft=4;spacingRight=4;overflow=hidden;points=[[0,0.5],[1,0.5]];portConstraint=eastwest;rotatable=0;whiteSpace=wrap;html=1;" vertex="1" parent="svKp2PfW3cR6oauoN-tS-53">
          <mxGeometry y="40" width="160" height="40" as="geometry" />
        </mxCell>
        <mxCell id="svKp2PfW3cR6oauoN-tS-55" value="B -&amp;gt; ." style="text;strokeColor=none;fillColor=none;align=left;verticalAlign=middle;spacingLeft=4;spacingRight=4;overflow=hidden;points=[[0,0.5],[1,0.5]];portConstraint=eastwest;rotatable=0;whiteSpace=wrap;html=1;" vertex="1" parent="svKp2PfW3cR6oauoN-tS-53">
          <mxGeometry y="80" width="160" height="40" as="geometry" />
        </mxCell>
        <mxCell id="svKp2PfW3cR6oauoN-tS-57" value="2" style="text;strokeColor=none;fillColor=none;align=center;verticalAlign=middle;spacingLeft=4;spacingRight=4;overflow=hidden;points=[[0,0.5],[1,0.5]];portConstraint=eastwest;rotatable=0;whiteSpace=wrap;html=1;" vertex="1" parent="svKp2PfW3cR6oauoN-tS-52">
          <mxGeometry width="160" height="30" as="geometry" />
        </mxCell>
        <mxCell id="svKp2PfW3cR6oauoN-tS-58" value="" style="group" vertex="1" connectable="0" parent="1">
          <mxGeometry x="280" y="570" width="160" height="190" as="geometry" />
        </mxCell>
        <mxCell id="svKp2PfW3cR6oauoN-tS-59" value="S -&amp;gt; a.R" style="swimlane;fontStyle=0;childLayout=stackLayout;horizontal=1;startSize=40;horizontalStack=0;resizeParent=1;resizeParentMax=0;resizeLast=0;collapsible=1;marginBottom=0;whiteSpace=wrap;html=1;" vertex="1" parent="svKp2PfW3cR6oauoN-tS-58">
          <mxGeometry y="30" width="160" height="120" as="geometry" />
        </mxCell>
        <mxCell id="svKp2PfW3cR6oauoN-tS-60" value="B -&amp;gt; .dE" style="text;strokeColor=none;fillColor=none;align=left;verticalAlign=middle;spacingLeft=4;spacingRight=4;overflow=hidden;points=[[0,0.5],[1,0.5]];portConstraint=eastwest;rotatable=0;whiteSpace=wrap;html=1;" vertex="1" parent="svKp2PfW3cR6oauoN-tS-59">
          <mxGeometry y="40" width="160" height="40" as="geometry" />
        </mxCell>
        <mxCell id="svKp2PfW3cR6oauoN-tS-61" value="B -&amp;gt; ." style="text;strokeColor=none;fillColor=none;align=left;verticalAlign=middle;spacingLeft=4;spacingRight=4;overflow=hidden;points=[[0,0.5],[1,0.5]];portConstraint=eastwest;rotatable=0;whiteSpace=wrap;html=1;" vertex="1" parent="svKp2PfW3cR6oauoN-tS-59">
          <mxGeometry y="80" width="160" height="40" as="geometry" />
        </mxCell>
        <mxCell id="svKp2PfW3cR6oauoN-tS-62" value="3" style="text;strokeColor=none;fillColor=none;align=center;verticalAlign=middle;spacingLeft=4;spacingRight=4;overflow=hidden;points=[[0,0.5],[1,0.5]];portConstraint=eastwest;rotatable=0;whiteSpace=wrap;html=1;" vertex="1" parent="svKp2PfW3cR6oauoN-tS-58">
          <mxGeometry width="160" height="30" as="geometry" />
        </mxCell>
        <mxCell id="svKp2PfW3cR6oauoN-tS-63" value="" style="group" vertex="1" connectable="0" parent="1">
          <mxGeometry x="280" y="730" width="160" height="190" as="geometry" />
        </mxCell>
        <mxCell id="svKp2PfW3cR6oauoN-tS-64" value="S -&amp;gt; b.R" style="swimlane;fontStyle=0;childLayout=stackLayout;horizontal=1;startSize=40;horizontalStack=0;resizeParent=1;resizeParentMax=0;resizeLast=0;collapsible=1;marginBottom=0;whiteSpace=wrap;html=1;" vertex="1" parent="svKp2PfW3cR6oauoN-tS-63">
          <mxGeometry y="30" width="160" height="120" as="geometry" />
        </mxCell>
        <mxCell id="svKp2PfW3cR6oauoN-tS-65" value="B -&amp;gt; .dE" style="text;strokeColor=none;fillColor=none;align=left;verticalAlign=middle;spacingLeft=4;spacingRight=4;overflow=hidden;points=[[0,0.5],[1,0.5]];portConstraint=eastwest;rotatable=0;whiteSpace=wrap;html=1;" vertex="1" parent="svKp2PfW3cR6oauoN-tS-64">
          <mxGeometry y="40" width="160" height="40" as="geometry" />
        </mxCell>
        <mxCell id="svKp2PfW3cR6oauoN-tS-66" value="B -&amp;gt; ." style="text;strokeColor=none;fillColor=none;align=left;verticalAlign=middle;spacingLeft=4;spacingRight=4;overflow=hidden;points=[[0,0.5],[1,0.5]];portConstraint=eastwest;rotatable=0;whiteSpace=wrap;html=1;" vertex="1" parent="svKp2PfW3cR6oauoN-tS-64">
          <mxGeometry y="80" width="160" height="40" as="geometry" />
        </mxCell>
        <mxCell id="svKp2PfW3cR6oauoN-tS-67" value="4" style="text;strokeColor=none;fillColor=none;align=center;verticalAlign=middle;spacingLeft=4;spacingRight=4;overflow=hidden;points=[[0,0.5],[1,0.5]];portConstraint=eastwest;rotatable=0;whiteSpace=wrap;html=1;" vertex="1" parent="svKp2PfW3cR6oauoN-tS-63">
          <mxGeometry width="160" height="30" as="geometry" />
        </mxCell>
        <mxCell id="svKp2PfW3cR6oauoN-tS-69" value="" style="group" vertex="1" connectable="0" parent="1">
          <mxGeometry x="560" y="370" width="160" height="190" as="geometry" />
        </mxCell>
        <mxCell id="svKp2PfW3cR6oauoN-tS-70" value="B -&amp;gt; d.E" style="swimlane;fontStyle=0;childLayout=stackLayout;horizontal=1;startSize=40;horizontalStack=0;resizeParent=1;resizeParentMax=0;resizeLast=0;collapsible=1;marginBottom=0;whiteSpace=wrap;html=1;" vertex="1" parent="svKp2PfW3cR6oauoN-tS-69">
          <mxGeometry y="30" width="160" height="160" as="geometry" />
        </mxCell>
        <mxCell id="svKp2PfW3cR6oauoN-tS-71" value="E -&amp;gt; .SB" style="text;strokeColor=none;fillColor=none;align=left;verticalAlign=middle;spacingLeft=4;spacingRight=4;overflow=hidden;points=[[0,0.5],[1,0.5]];portConstraint=eastwest;rotatable=0;whiteSpace=wrap;html=1;" vertex="1" parent="svKp2PfW3cR6oauoN-tS-70">
          <mxGeometry y="40" width="160" height="40" as="geometry" />
        </mxCell>
        <mxCell id="svKp2PfW3cR6oauoN-tS-72" value="S -&amp;gt; a.R" style="text;strokeColor=none;fillColor=none;align=left;verticalAlign=middle;spacingLeft=4;spacingRight=4;overflow=hidden;points=[[0,0.5],[1,0.5]];portConstraint=eastwest;rotatable=0;whiteSpace=wrap;html=1;" vertex="1" parent="svKp2PfW3cR6oauoN-tS-70">
          <mxGeometry y="80" width="160" height="40" as="geometry" />
        </mxCell>
        <mxCell id="svKp2PfW3cR6oauoN-tS-73" value="S -&amp;gt; b.R" style="text;strokeColor=none;fillColor=none;align=left;verticalAlign=middle;spacingLeft=4;spacingRight=4;overflow=hidden;points=[[0,0.5],[1,0.5]];portConstraint=eastwest;rotatable=0;whiteSpace=wrap;html=1;" vertex="1" parent="svKp2PfW3cR6oauoN-tS-70">
          <mxGeometry y="120" width="160" height="40" as="geometry" />
        </mxCell>
        <mxCell id="svKp2PfW3cR6oauoN-tS-74" value="6" style="text;strokeColor=none;fillColor=none;align=center;verticalAlign=middle;spacingLeft=4;spacingRight=4;overflow=hidden;points=[[0,0.5],[1,0.5]];portConstraint=eastwest;rotatable=0;whiteSpace=wrap;html=1;" vertex="1" parent="svKp2PfW3cR6oauoN-tS-69">
          <mxGeometry width="160" height="30" as="geometry" />
        </mxCell>
        <mxCell id="svKp2PfW3cR6oauoN-tS-75" value="" style="endArrow=classic;html=1;rounded=0;align=center;exitX=1;exitY=0.5;exitDx=0;exitDy=0;" edge="1" parent="1" source="svKp2PfW3cR6oauoN-tS-2">
          <mxGeometry width="50" height="50" relative="1" as="geometry">
            <mxPoint x="210" y="580" as="sourcePoint" />
            <mxPoint x="320" y="380" as="targetPoint" />
            <Array as="points">
              <mxPoint x="280" y="580" />
              <mxPoint x="280" y="380" />
            </Array>
          </mxGeometry>
        </mxCell>
        <mxCell id="svKp2PfW3cR6oauoN-tS-76" value="S" style="edgeLabel;html=1;align=center;verticalAlign=middle;resizable=0;points=[];" vertex="1" connectable="0" parent="svKp2PfW3cR6oauoN-tS-75">
          <mxGeometry x="0.1093" relative="1" as="geometry">
            <mxPoint as="offset" />
          </mxGeometry>
        </mxCell>
        <mxCell id="svKp2PfW3cR6oauoN-tS-77" value="" style="endArrow=classic;html=1;rounded=0;align=center;exitX=1;exitY=0.5;exitDx=0;exitDy=0;" edge="1" parent="1" source="svKp2PfW3cR6oauoN-tS-3">
          <mxGeometry width="50" height="50" relative="1" as="geometry">
            <mxPoint x="210" y="620" as="sourcePoint" />
            <mxPoint x="280" y="620" as="targetPoint" />
            <Array as="points">
              <mxPoint x="250" y="620" />
            </Array>
          </mxGeometry>
        </mxCell>
        <mxCell id="svKp2PfW3cR6oauoN-tS-78" value="a" style="edgeLabel;html=1;align=center;verticalAlign=middle;resizable=0;points=[];" vertex="1" connectable="0" parent="svKp2PfW3cR6oauoN-tS-77">
          <mxGeometry x="0.1093" relative="1" as="geometry">
            <mxPoint as="offset" />
          </mxGeometry>
        </mxCell>
        <mxCell id="svKp2PfW3cR6oauoN-tS-79" value="" style="endArrow=classic;html=1;rounded=0;align=center;exitX=1;exitY=0.5;exitDx=0;exitDy=0;" edge="1" parent="1" source="svKp2PfW3cR6oauoN-tS-4">
          <mxGeometry width="50" height="50" relative="1" as="geometry">
            <mxPoint x="240" y="640" as="sourcePoint" />
            <mxPoint x="280" y="779.66" as="targetPoint" />
            <Array as="points">
              <mxPoint x="240" y="660" />
              <mxPoint x="240" y="780" />
            </Array>
          </mxGeometry>
        </mxCell>
        <mxCell id="svKp2PfW3cR6oauoN-tS-80" value="b" style="edgeLabel;html=1;align=center;verticalAlign=middle;resizable=0;points=[];" vertex="1" connectable="0" parent="svKp2PfW3cR6oauoN-tS-79">
          <mxGeometry x="0.1093" relative="1" as="geometry">
            <mxPoint as="offset" />
          </mxGeometry>
        </mxCell>
        <mxCell id="svKp2PfW3cR6oauoN-tS-81" value="" style="endArrow=classic;html=1;rounded=0;align=center;exitX=1;exitY=0.5;exitDx=0;exitDy=0;" edge="1" parent="1">
          <mxGeometry width="50" height="50" relative="1" as="geometry">
            <mxPoint x="440" y="780" as="sourcePoint" />
            <mxPoint x="520" y="780" as="targetPoint" />
            <Array as="points">
              <mxPoint x="490" y="780" />
            </Array>
          </mxGeometry>
        </mxCell>
        <mxCell id="svKp2PfW3cR6oauoN-tS-82" value="R" style="edgeLabel;html=1;align=center;verticalAlign=middle;resizable=0;points=[];" vertex="1" connectable="0" parent="svKp2PfW3cR6oauoN-tS-81">
          <mxGeometry x="0.1093" relative="1" as="geometry">
            <mxPoint as="offset" />
          </mxGeometry>
        </mxCell>
        <mxCell id="svKp2PfW3cR6oauoN-tS-83" value="" style="endArrow=classic;html=1;rounded=0;align=center;exitX=1;exitY=0.5;exitDx=0;exitDy=0;" edge="1" parent="1">
          <mxGeometry width="50" height="50" relative="1" as="geometry">
            <mxPoint x="440" y="620" as="sourcePoint" />
            <mxPoint x="520" y="620" as="targetPoint" />
            <Array as="points">
              <mxPoint x="490" y="620" />
            </Array>
          </mxGeometry>
        </mxCell>
        <mxCell id="svKp2PfW3cR6oauoN-tS-84" value="R" style="edgeLabel;html=1;align=center;verticalAlign=middle;resizable=0;points=[];" vertex="1" connectable="0" parent="svKp2PfW3cR6oauoN-tS-83">
          <mxGeometry x="0.1093" relative="1" as="geometry">
            <mxPoint as="offset" />
          </mxGeometry>
        </mxCell>
        <mxCell id="svKp2PfW3cR6oauoN-tS-85" value="" style="endArrow=classic;html=1;rounded=0;align=center;entryX=0;entryY=0.5;entryDx=0;entryDy=0;" edge="1" parent="1" target="svKp2PfW3cR6oauoN-tS-43">
          <mxGeometry width="50" height="50" relative="1" as="geometry">
            <mxPoint x="480" y="380" as="sourcePoint" />
            <mxPoint x="550" y="300" as="targetPoint" />
            <Array as="points">
              <mxPoint x="520" y="380" />
              <mxPoint x="520" y="300" />
            </Array>
          </mxGeometry>
        </mxCell>
        <mxCell id="svKp2PfW3cR6oauoN-tS-86" value="B" style="edgeLabel;html=1;align=center;verticalAlign=middle;resizable=0;points=[];" vertex="1" connectable="0" parent="svKp2PfW3cR6oauoN-tS-85">
          <mxGeometry x="0.1093" relative="1" as="geometry">
            <mxPoint as="offset" />
          </mxGeometry>
        </mxCell>
        <mxCell id="svKp2PfW3cR6oauoN-tS-87" value="" style="endArrow=classic;html=1;rounded=0;align=center;exitX=1;exitY=0.5;exitDx=0;exitDy=0;" edge="1" parent="1">
          <mxGeometry width="50" height="50" relative="1" as="geometry">
            <mxPoint x="480" y="420" as="sourcePoint" />
            <mxPoint x="560" y="420" as="targetPoint" />
            <Array as="points">
              <mxPoint x="530" y="420" />
            </Array>
          </mxGeometry>
        </mxCell>
        <mxCell id="svKp2PfW3cR6oauoN-tS-88" value="d" style="edgeLabel;html=1;align=center;verticalAlign=middle;resizable=0;points=[];" vertex="1" connectable="0" parent="svKp2PfW3cR6oauoN-tS-87">
          <mxGeometry x="0.1093" relative="1" as="geometry">
            <mxPoint as="offset" />
          </mxGeometry>
        </mxCell>
        <mxCell id="svKp2PfW3cR6oauoN-tS-89" value="" style="endArrow=classic;html=1;rounded=0;align=center;exitX=1;exitY=0.5;exitDx=0;exitDy=0;" edge="1" parent="1">
          <mxGeometry width="50" height="50" relative="1" as="geometry">
            <mxPoint x="720" y="420" as="sourcePoint" />
            <mxPoint x="800" y="420" as="targetPoint" />
            <Array as="points">
              <mxPoint x="770" y="420" />
            </Array>
          </mxGeometry>
        </mxCell>
        <mxCell id="svKp2PfW3cR6oauoN-tS-90" value="E" style="edgeLabel;html=1;align=center;verticalAlign=middle;resizable=0;points=[];" vertex="1" connectable="0" parent="svKp2PfW3cR6oauoN-tS-89">
          <mxGeometry x="0.1093" relative="1" as="geometry">
            <mxPoint as="offset" />
          </mxGeometry>
        </mxCell>
        <mxCell id="svKp2PfW3cR6oauoN-tS-91" value="6" style="rounded=0;whiteSpace=wrap;html=1;" vertex="1" parent="1">
          <mxGeometry x="520" y="680" width="140" height="40" as="geometry" />
        </mxCell>
        <mxCell id="svKp2PfW3cR6oauoN-tS-92" value="" style="endArrow=classic;html=1;rounded=0;align=center;exitX=1;exitY=0.5;exitDx=0;exitDy=0;entryX=0;entryY=0.5;entryDx=0;entryDy=0;" edge="1" parent="1" source="svKp2PfW3cR6oauoN-tS-60" target="svKp2PfW3cR6oauoN-tS-91">
          <mxGeometry width="50" height="50" relative="1" as="geometry">
            <mxPoint x="440" y="660" as="sourcePoint" />
            <mxPoint x="520" y="660" as="targetPoint" />
            <Array as="points">
              <mxPoint x="480" y="660" />
              <mxPoint x="480" y="700" />
            </Array>
          </mxGeometry>
        </mxCell>
        <mxCell id="svKp2PfW3cR6oauoN-tS-93" value="d" style="edgeLabel;html=1;align=center;verticalAlign=middle;resizable=0;points=[];" vertex="1" connectable="0" parent="svKp2PfW3cR6oauoN-tS-92">
          <mxGeometry x="0.1093" relative="1" as="geometry">
            <mxPoint as="offset" />
          </mxGeometry>
        </mxCell>
        <mxCell id="svKp2PfW3cR6oauoN-tS-94" value="2" style="rounded=0;whiteSpace=wrap;html=1;" vertex="1" parent="1">
          <mxGeometry x="880" y="480" width="140" height="40" as="geometry" />
        </mxCell>
        <mxCell id="svKp2PfW3cR6oauoN-tS-95" value="3" style="rounded=0;whiteSpace=wrap;html=1;" vertex="1" parent="1">
          <mxGeometry x="840" y="560" width="140" height="40" as="geometry" />
        </mxCell>
        <mxCell id="svKp2PfW3cR6oauoN-tS-96" value="4" style="rounded=0;whiteSpace=wrap;html=1;" vertex="1" parent="1">
          <mxGeometry x="800" y="640" width="140" height="40" as="geometry" />
        </mxCell>
        <mxCell id="svKp2PfW3cR6oauoN-tS-97" value="" style="endArrow=classic;html=1;rounded=0;align=center;exitX=1;exitY=0.5;exitDx=0;exitDy=0;entryX=0;entryY=0.5;entryDx=0;entryDy=0;" edge="1" parent="1" source="svKp2PfW3cR6oauoN-tS-71" target="svKp2PfW3cR6oauoN-tS-94">
          <mxGeometry width="50" height="50" relative="1" as="geometry">
            <mxPoint x="730" y="430" as="sourcePoint" />
            <mxPoint x="810" y="430" as="targetPoint" />
            <Array as="points">
              <mxPoint x="840" y="460" />
              <mxPoint x="840" y="500" />
            </Array>
          </mxGeometry>
        </mxCell>
        <mxCell id="svKp2PfW3cR6oauoN-tS-98" value="S" style="edgeLabel;html=1;align=center;verticalAlign=middle;resizable=0;points=[];" vertex="1" connectable="0" parent="svKp2PfW3cR6oauoN-tS-97">
          <mxGeometry x="0.1093" relative="1" as="geometry">
            <mxPoint as="offset" />
          </mxGeometry>
        </mxCell>
        <mxCell id="svKp2PfW3cR6oauoN-tS-101" value="" style="endArrow=classic;html=1;rounded=0;align=center;exitX=1;exitY=0.5;exitDx=0;exitDy=0;entryX=0;entryY=0.5;entryDx=0;entryDy=0;" edge="1" parent="1" target="svKp2PfW3cR6oauoN-tS-96">
          <mxGeometry width="50" height="50" relative="1" as="geometry">
            <mxPoint x="720" y="540" as="sourcePoint" />
            <mxPoint x="800" y="540" as="targetPoint" />
            <Array as="points">
              <mxPoint x="760" y="540" />
              <mxPoint x="760" y="660" />
            </Array>
          </mxGeometry>
        </mxCell>
        <mxCell id="svKp2PfW3cR6oauoN-tS-102" value="b" style="edgeLabel;html=1;align=center;verticalAlign=middle;resizable=0;points=[];" vertex="1" connectable="0" parent="svKp2PfW3cR6oauoN-tS-101">
          <mxGeometry x="0.1093" relative="1" as="geometry">
            <mxPoint as="offset" />
          </mxGeometry>
        </mxCell>
        <mxCell id="svKp2PfW3cR6oauoN-tS-103" value="" style="endArrow=classic;html=1;rounded=0;align=center;exitX=1;exitY=0.5;exitDx=0;exitDy=0;entryX=0;entryY=0.5;entryDx=0;entryDy=0;" edge="1" parent="1" source="svKp2PfW3cR6oauoN-tS-72" target="svKp2PfW3cR6oauoN-tS-95">
          <mxGeometry width="50" height="50" relative="1" as="geometry">
            <mxPoint x="730" y="550" as="sourcePoint" />
            <mxPoint x="810" y="670" as="targetPoint" />
            <Array as="points">
              <mxPoint x="800" y="500" />
              <mxPoint x="800" y="580" />
            </Array>
          </mxGeometry>
        </mxCell>
        <mxCell id="svKp2PfW3cR6oauoN-tS-104" value="a" style="edgeLabel;html=1;align=center;verticalAlign=middle;resizable=0;points=[];" vertex="1" connectable="0" parent="svKp2PfW3cR6oauoN-tS-103">
          <mxGeometry x="0.1093" relative="1" as="geometry">
            <mxPoint as="offset" />
          </mxGeometry>
        </mxCell>
        <mxCell id="svKp2PfW3cR6oauoN-tS-105" value="6" style="rounded=0;whiteSpace=wrap;html=1;" vertex="1" parent="1">
          <mxGeometry x="520" y="840" width="140" height="40" as="geometry" />
        </mxCell>
        <mxCell id="svKp2PfW3cR6oauoN-tS-106" value="" style="endArrow=classic;html=1;rounded=0;align=center;exitX=1;exitY=0.5;exitDx=0;exitDy=0;entryX=0;entryY=0.5;entryDx=0;entryDy=0;" edge="1" parent="1">
          <mxGeometry width="50" height="50" relative="1" as="geometry">
            <mxPoint x="440" y="820" as="sourcePoint" />
            <mxPoint x="520" y="860" as="targetPoint" />
            <Array as="points">
              <mxPoint x="480" y="820" />
              <mxPoint x="480" y="860" />
            </Array>
          </mxGeometry>
        </mxCell>
        <mxCell id="svKp2PfW3cR6oauoN-tS-107" value="d" style="edgeLabel;html=1;align=center;verticalAlign=middle;resizable=0;points=[];" vertex="1" connectable="0" parent="svKp2PfW3cR6oauoN-tS-106">
          <mxGeometry x="0.1093" relative="1" as="geometry">
            <mxPoint as="offset" />
          </mxGeometry>
        </mxCell>
      </root>
    </mxGraphModel>
  </diagram>
</mxfile>
